<svg xmlns="http://www.w3.org/2000/svg" width="647" height="108" version="1.1" viewBox="0 0 647 108"><g fill="none" fill-rule="evenodd" stroke="none" stroke-width="1"><path d="M549.325.948c-2.994 1.077-3.803 1.287-4.966 1.287-1.867 0-3.465 1.163-5.744 4.179-2.944 3.895-3.612 3.788-3.955-.643-.117-1.512-.35-2.887-.516-3.054-.34-.34-26.043-.404-27.613-.07-.484.104-2.19.837-3.786 1.63-4.43 2.198-5.707 2.216-9.974.13-1.775-.866-2.545-1.094-3.713-1.1-.808 0-2.989-.187-4.843-.41-6.422-.773-8.382-.896-10.6-.663-4.698.491-6.75 1.355-9.119 3.838-1.805 1.891-2.189 1.848-1.946-.226.42-3.582-1.663-4.261-10.7-3.49-2.885.247-6.58.415-8.21.376-1.63-.039-3.876.06-4.988.22-1.624.233-3.138.19-7.683-.223-3.114-.282-7.18-.49-9.033-.463-1.852.03-4.34-.04-5.526-.152-3.61-.341-6.833.904-12.503 4.832-3.997 2.77-5.422 1.957-4.311-2.456.52-2.059.893-1.986-10.157-1.993-7.035-.003-10.423.1-12.341.382-2.123.31-3.028.324-4.585.073-2.316-.374-103.181-.453-108.432-.086-2.792.196-3.475.341-4.987 1.065-2.02.965-4.16 1.106-5.861.388-5.25-2.221-7.72-2.627-12.102-1.99-2.494.362-7.082.438-30.703.503-35.007.096-42.63.09-52.169-.05-5.27-.076-8.276-.01-9.57.215-8.895 1.537-16.91 1.776-19.682.587-2.355-1.012-10.86-1.274-12.305-.381-1.74 1.075-9.588.833-13.4-.413-4.33-1.417-6.735-1.137-17.432 2.029-4.412 1.305-6.219 1.087-6.913-.833-.475-1.317 1.715-1.235-30.162-1.142l-28.718.082-1.864 1.024C9.305 8.847 1.25 21.731 2.564 28.983c.115.636.238 12.682.272 26.769.085 34.902.147 36.287 1.645 37.602 3.075 2.7 5.642-1.98 6.603-12.038.539-5.636.2-7.495-1.708-9.328-2.606-2.502-2.805-5.799-.777-12.865 2.904-10.122 2.836-9.112 2.063-30.197-.345-9.411 1.438-15.058 5.383-17.06 2.111-1.07-6.695-1.018 230.916-1.384 30.137-.047 42.3-.154 44.75-.393 2.476-.241 3.987-.254 5.708-.044 2.299.279 13.236.382 16.675.156 6.85-.45 14.5-.738 15.819-.596.863.094 2.541.304 3.727.471 3.047.425 91.573.343 92.796-.086.649-.228 1.113-.221 1.888.028.823.265 125.084.309 133.27.047.519-.016 5.978-.013 12.132.008 6.154.02 21.694.01 34.535-.024 26.258-.068 24.034-.243 25.56 2 1.081 1.587 1.604 3.333 2.181 7.267.571 3.894.597 3.957 1.356 3.27 1.08-.978 1.237-.122.454 2.49-1.248 4.17-1.993 24.522-.92 25.203.917.583 4.094-.352 5.442-1.601 2.133-1.978 2.44-4.397 2.033-16.112-.073-2.075-.026-5.435.102-7.465.901-14.234-7.459-23.472-18.71-20.674-2.886.718-3.034.709-4.274-.273-2.038-1.615-3.526-2-7.722-1.998-37.476.02-48.114.066-48.719.218-.885.222-.967.576-.657 2.872.287 2.135.1 3.091-.653 3.33-.668.212-.803.117-4.282-3.008-2.849-2.561-4.982-3.899-7.037-4.417-1.952-.49-2.24-.51-3.09-.203m-191.96 23.426c-12.547 1.825-23.735 12.862-25.759 25.412-.425 2.632-.28 3.069.804 2.428.956-.564 2.04-.218 2.425.773.364.94-.259 1.623-2.035 2.228l-1.587.539.081 2.022c.17 4.225 2.33 11.745 3.455 12.028 1.071.269 2.551-.155 4.426-1.268 3.185-1.892 3.811-1.079 1.768 2.299-5.843 9.664 17.516 19.48 26.604 11.178 1.145-1.047 1.595-.91 2.085.63 2.166 6.813 13.458-.525 13.513-8.782.022-3.534-.335-3.693-3.417-1.502-8.949 6.36-18.328 5.605-25.784-2.077-9.809-10.107-9.731-25.524.165-32.27 6.185-4.218 9.541-4.37 21.976-1 5.602 1.517 7.231.234 6.553-5.167-.504-4.022-1.44-4.357-6.325-2.268-.55.234-1.399.427-1.886.427-1.487-.003-2.096-.552-4.908-4.4-1.016-1.39-1.588-1.555-3.306-.951-1.788.627-2.184.622-3.186-.04-.89-.59-2.72-.666-5.661-.239m226.34.191c-.902.337-2.005 1.26-4.323 3.62-4.38 4.459-5.405 4.359-7.013-.68-.32-1.005-.761-2.005-.981-2.225-.599-.598-3.23-.542-3.56.076-.475.888-.245 58.003.235 58.307.222.14 1.435.257 2.695.26 3.947.008 12.429.549 15.028.96 18.202 2.866 37.169-11.495 38.013-28.785.65-13.315-8.177-26.191-20.104-29.326-4.948-1.3-6.923-1.649-10.154-1.791-1.928-.084-4.104-.324-4.835-.53-1.726-.49-3.494-.45-5.002.114m-163.65.47c-7.736 1.096-11.834 5.553-15.093 16.42-1.168 3.89-1.571 4.86-2.692 6.482-3.431 4.963-6.547 12.852-5.912 14.97.362 1.208.008 3.117-.98 5.277-.37.808-.672 1.52-.672 1.583 0 .138-2.34 5.19-2.734 5.905-1.085 1.965-1.652 4.865-1.173 6.01.364.871.733 1.047 3.28 1.565.473.097 1.012.358 1.196.582 1.856 2.234 5.992 1.919 8.373-.637 3.079-3.306 2.092-6.62-2.31-7.747-2.48-.636-2.392-1.019.63-2.743 3.329-1.901 4.747-1.819 5.564.322.406 1.06.553 1.21 1.036 1.046 1.724-.584 18.695-.555 21.456.037 2.896.62 3.091.793 3.468 3.079.937 5.666 3.918 7.684 11.36 7.684 6.25 0 6.65-.667 4.045-6.74l-1.446-3.37c-.668-1.557-1.484-3.595-1.812-4.529-.668-1.897-.846-2.044-2.944-2.439-7.108-1.336-8.245-5.401-2.359-8.43 1.539-.79 1.235-1.992-2.66-10.54-2.268-4.98-2.354-5.236-2.571-7.817-.427-5.047-.924-5.396-7.103-5.003-1.705.108-1.587-.673.467-3.093 4.884-5.746 1.16-9.23-8.415-7.875m-249.122.119c-1.113.124-5.157.226-8.988.226-8.276-.002-8.745.154-4.628 1.525 2.88.96 2.06 1.937-1.331 1.59-.948-.096-2.037-.098-2.42-.001l-.697.175v20.744c0 23.225-.169 21.303 1.87 21.303 1.886 0 2.234 1.448.726 3.022-6.194 6.462-4.866 11.403 3.065 11.403 7.362 0 10.981-3.839 9.28-9.84-2.686-9.472-1.073-11.159 11.075-11.588 14.483-.512 18.152-3.198 20.277-14.832.911-4.984.911-4.973.012-5.076-1.192-.138-.756-.98.606-1.17 1.333-.184.922-4.45-.711-7.371-3.753-6.715-16.772-11.393-28.136-10.11m136.615-.11c-.115.118-6.647.184-14.513.148-10.632-.05-14.404.015-14.687.25-.652.541-.563 47.662.09 47.864 1.301.401 1.282.322 1.283 5.125.002 7.201 1.38 8.648 6.604 6.925 1.009-.333 3.924-.411 17.328-.461 12.326-.047 16.19-.14 16.445-.393.228-.228.331-1.406.331-3.756 0-4.137-.338-5.069-2.258-6.196l-1.245-.733-7.416.12c-18.033.293-17.013.718-17.153-7.13-.094-5.305.134-6.133 1.921-6.984 1.044-.498 4.062-1.042 4.685-.845.266.085 2.959.166 5.987.18 4.146.021 5.686.121 6.241.406 4.719 2.42 9.015-3.926 6.294-9.295-.94-1.857-.673-1.789-7.3-1.84-3.263-.025-7.909-.069-10.326-.1-5.024-.06-4.85-.114-4.062 1.227 1.927 3.263-1.088 9.947-3.825 8.481-2.207-1.18-2.283-8.664-.099-9.659.658-.3.673-.362.464-1.995-1.19-9.3 1.506-11.376 13.574-10.448 10.456.804 12.943.09 13.883-3.984.684-2.964-.248-5.526-2.34-6.43-1.156-.5-9.49-.903-9.906-.477m139.208.226c-.969 1.168-.805 6.566.257 8.457 1.49 2.651 4.413 3.21 10.874 2.079 2.64-.463 4.573-.672 5.169-.56 2.154.404 3.906 3.188 3.906 6.207 0 1.836.183 2.302.905 2.307 1.684.013 2.716 3.206 1.39 4.306-.578.48-1.746-.786-1.788-1.938l-.031-.89-.207.809c-.943 3.71-.295 6.107 2.36 8.698 3.303 3.227 3.154 5.32-.684 9.573l-1.89 2.095.04 2.488c.022 1.37-.133 4.586-.344 7.147-.579 7.004-.03 8.344 3.554 8.701 1.074.109 2.438.387 3.03.618 6.094 2.391 11.979-5.621 6.95-9.458-1.067-.814-1.075-1.217-.085-3.98 1.163-3.246 1.484-11.56 1.058-27.5l-.1-3.774.854-1.637c2.029-3.887 7.579-5.03 13.085-2.696 3.805 1.613 7.087-1.178 7.087-6.028 0-5.026-.715-5.41-10.054-5.41h-7.274l-.442.674c-.517.79-.838.812-4.252.288-5.082-.78-9.04-.963-20.91-.963-10.206 0-12.188.062-12.458.387m63.807.086c-1.818 2.015-.306 6.4 3.038 8.8 2.287 1.643 2.093 2.431-.536 2.174-2.277-.223-2.328-.14-1.944 3.31.44 3.95.41 9.042-.09 15.844-.575 7.8-.47 28.599.146 28.989.593.373 10.436.34 10.669-.038.102-.165.2-.862.218-1.55.04-1.522.99-1.97 1.553-.734.374.817.544.88 3.333 1.212 1.185.142 4.097.52 6.47.841 2.794.377 5.644.578 8.088.568 2.744-.011 4.132.1 5.085.41 4.084 1.329 6.784-1.16 6.773-6.242-.005-2.522-.691-4.167-2.02-4.856-.86-.443-24.57-.448-27.137-.005-.964.167-1.163.118-1.415-.352-.447-.835.302-1.458 1.486-1.235l.92.172-.014-4.276c-.02-7.172 1.223-9.502 5.374-10.066.825-.112 1.869-.092 2.315.043 2.012.61 15.018.777 16.159.207.995-.498 1.83-1.617 1.824-2.447-.053-8.388-.794-9.025-9.502-8.184-2.438.235-5.462.41-6.723.389-1.26-.022-3.023.111-3.916.296-3.717.766-5.984-2.134-5.736-7.341.233-4.902 1.281-5.597 8.44-5.596 2.668 0 7.853-.005 11.518-.011l6.667-.01.42-.642c1.01-1.542.42-5.857-1.01-7.378-2.104-2.24-4.465-2.504-23.932-2.68-15.725-.143-16.05-.135-16.521.388m-295.63.017c-2.757.266-1.92 11.497 1.174 15.752 1.194 1.641 2.597 2.513 4.442 2.764 1.985.267 2.564.58 2.107 1.13-.277.332-.65.378-1.838.224-6.107-.796-7.155.97-7.07 11.914.05 6.393.019 6.89-.533 8.358-2.02 5.377-.283 6.97 8.488 7.775 1.918.176 2.44.566 1.799 1.34-.317.383-4.122 2.288-4.569 2.288-1.454 0-5.403 3.808-5.403 5.21 0 3.582 9.954 4.271 13.407.93 1.561-1.51 1.707-2.466 1.628-10.603-.068-6.962-.047-7.318.513-8.528.595-1.288 2.098-2.376 3.282-2.376.283 0 .668-.183.852-.405.458-.553 1.005-.508 1.337.112.152.284.913.724 1.693.977 6.46 2.098 9.428 5.29 11.53 12.394 1.817 6.146 3.485 9.899 4.52 10.169 1.013.265 11.37.233 12.375-.037 2.645-.712 2.772-1.97.531-5.248-.922-1.35-1.608-2.692-1.784-3.494-.566-2.563-2.658-5.819-6.613-10.29-4.942-5.587-6.286-7.91-5.769-9.968.17-.676.416-1.296.545-1.377.132-.079.238-.613.238-1.185 0-1.244.334-2.047 3.629-8.736 5.3-10.757 5.115-13.458-.926-13.499l-2.282-.014-.723-1.503c-1.466-3.053-2.896-3.55-7.856-2.732-3.659.601-5.381.44-6.98-.654l-.982-.673-9.937-.05c-5.464-.028-10.337-.011-10.825.035m-188.173.229c-.186.074-.338.49-.338.922 0 1.07.914 1.077 1.466.011.522-1.011.043-1.407-1.128-.933m9.772.313c-7.92 2.05-11.288 9.352-9.99 21.657.362 3.428.467 3.84 1.532 5.932 1.658 3.266 1.55 4.76-.681 9.31l-.685 1.398-.008 8.73c-.008 9.023.177 10.863 1.196 11.882 1.31 1.31 31.714-.11 36.956-1.728 17.086-5.267 23.793-33.76 11.235-47.729-4.023-4.474-10.56-7.523-19.603-9.143-4.694-.84-17.148-1.033-19.952-.309m59.646-.31c-.183.312-.611 10.28-.555 12.928.081 3.952 1.548 6.006 4.302 6.026 2.04.014 1.83.977-1.214 5.532-3.065 4.593-3.712 6.422-3.458 9.774l.155 2.048 1.479 1.368c1.87 1.73 2.334 4.292 1.265 6.97-.293.729-1.47 5.409-1.896 7.536-.458 2.278.035 5.19 1.147 6.773.68.969 1.06.919 5.723-.757 7.29-2.62 10.225-2.605 11.628.058l.53 1.01 11.25.07 11.248.07.264-.694c.413-1.087.329-6.452-.118-7.522-.75-1.797-1.527-1.991-3.61-.906-2.026 1.057-2.315 1.047-2.904-.09-.266-.513-.869-.998-1.68-1.35-1.361-.588-.837-.585-11.734-.064-5.644.27-7-.58-7.743-4.847-1.547-8.882 3.714-12.397 14.838-9.914 7.204 1.606 12.65-2.816 9.96-8.088-1.695-3.323-3.68-3.773-12.902-2.919-8.715.806-11.118-.284-12.027-5.456-1.071-6.092 1.787-7.591 13.22-6.935 2.819.162 6.178.355 7.468.426 5.163.29 6.97-2.008 6.74-8.57-.113-3.23-2.256-3.412-7.158-.612-3.33 1.902-3.626 1.867-4.642-.574-.625-1.498.145-1.419-12.48-1.285-6.322.067-11.738.109-12.036.093-.296-.017-1.527-.096-2.735-.175-1.207-.08-2.254-.045-2.325.076m474.236 4.3c.055.168-.102.381-.35.477-.514.197-1.264-.308-1.027-.691.208-.336 1.25-.173 1.377.214m-278.323.255c.455 1.184-1.957 3.116-3.34 2.677-.8-.254-1.202-1.143-.76-1.677.925-1.12 3.787-1.817 4.1-1m16.2.48c.721.53.347 1.194-1.002 1.78-3.305 1.433-5.815.582-4.23-1.435.655-.83 4.242-1.068 5.232-.344m-130.86 4.984c5.963 2.078 9.366 8.542 7.635 14.498-.797 2.744-3.751 5.704-5.356 5.37-4.253-.892-5.987-.26-7.963 2.9-2.21 3.531-3.003 3.282-3.67-1.157-.2-1.334-.756-2.156-1.458-2.156-1.636 0-1.85-2.334-.567-6.163 1.964-5.861 2.477-8.884 1.91-11.25-.431-1.793-.324-1.937 1.805-2.427 2.065-.476 5.723-.293 7.664.385m59.102-.363c8.529 2.221 10.023 13.114 2.278 16.613-1.896.858-8.229.968-9.454.165l-.73-.478V35.922l.743-.284c2.113-.814 4.92-.96 7.163-.377m356.682.121c6.784 1.735 12.072 6.877 14.313 13.916 3.012 9.461-.04 17.614-8.245 22.029-1.081.58-2.393 1.347-2.917 1.7-2.847 1.928-7.867 1.938-11.136.02-3.512-2.057-4.655-5.342-3.415-9.815.477-1.723.539-2.771.537-9.16-.001-7.906-.144-8.93-1.359-9.83-1.036-.766-1.006-1.236.115-1.705 1.163-.485 1.246-.736 1.246-3.76 0-1.879.099-2.587.398-2.835 1.318-1.095 7.152-1.407 10.463-.56m-543.305.95c1.243.217 3.716.898 5.495 1.51l4.988 1.719c4.288 1.48 7.986 1.491 10.246.032 1.216-.784 2.895-1.39 3.151-1.134.335.335-.31 1.07-1.448 1.647-4.1 2.08-5.621 5.765-6.296 15.241-1.051 14.77-3.855 18.864-12.921 18.877-1.267.001-2.97.183-3.786.401-4.354 1.17-6.828-.032-7.773-3.774-.409-1.62-.21-33.718.212-34.226.615-.741 4.732-.888 8.132-.293m371.506 4.727c.746 2.292 6.032 17.694 6.834 19.918.515 1.42.546 2.177.091 2.224-2.1.22-12.73.29-13.548.088-3.065-.751-3.73-2.692-2.014-5.876.927-1.72 3.608-9.038 6.12-16.705.951-2.902 1.482-2.828 2.517.35m102.34 6.633c.524.8.236 1.59-.58 1.59-.724 0-1.034-.686-.702-1.55.354-.926.695-.936 1.282-.04m-177.849 1.684c0 1.31-4.181 4.313-5.534 3.973-1.56-.391-.106-2.257 2.84-3.644 2.026-.955 2.694-1.037 2.694-.329m195.431 2.867c2.717 2.945-.634 4.97-4.749 2.87-3.041-1.55-1.334-3.624 3.334-4.05.167-.016.804.515 1.415 1.18m101.014.433c-3.026 3.352-4.856 7.52-5.546 12.649-.314 2.329-.4 14.655-.106 15.131.343.555.1 4.769-.378 6.573-1.132 4.272-3.255 7.151-6.577 8.927l-1.963 1.047-5.526.042c-3.04.024-8.015-.138-11.055-.358-7.645-.554-10.495-.148-12.622 1.794-1.079.987-1.29.997-2.784.143-.645-.369-1.962-.935-2.926-1.26-2.016-.678.875-.625-31.211-.562-23.87.049-22.437-.084-20.847 1.924 1.118 1.412 1.699 3.078 1.372 3.939-.85 2.234-5.052-.32-7.066-4.295-.306-.604-.69-1.186-.857-1.294-.424-.28-6.131-.24-8.39.06-1.036.137-3.282.435-4.987.663-4.976.663-7.687.561-11.462-.432-5.465-1.44-8.757-1.26-17.974.972-6.725 1.63-10.06 1.579-12.809-.197l-1.297-.84-8.088-.102c-14.538-.186-15.876-.173-18.566.178-1.85.241-3.902.287-6.74.147-11.997-.582-17.698.238-22.735 3.273-2.727 1.642-4.573 1.307-8.63-1.57-4.327-3.068-7.326-3.652-11-2.143-4.444 1.825-7.773 2.335-13.48 2.06-10.206-.49-15.025-.204-19.184 1.137-2.591.835-2.945.759-3.191-.697-.374-2.218-2.257-3.084-6.204-2.849-1.186.071-3.855.228-5.932.35-2.075.122-6.106.153-8.958.069-2.852-.083-6.31-.065-7.684.04-6.594.505-12.181.546-15.07.107-4.318-.653-6.885-.564-11.348.393-6.925 1.489-8.967 1.495-11.131.04l-1.077-.726-4.853.044c-2.67.024-6.13.176-7.687.337-3.978.41-9.578.419-11.13.014-1.396-.362-6.68-.264-14.044.262-2.946.21-4.559.206-6.066-.02-3.858-.58-8.79-.612-10.302-.069-1.292.466-1.375.464-2.253-.008-.86-.463-1.63-.48-13.404-.307-14.785.218-15.075.218-25.298-.013-8.1-.183-9.03-.118-12.403.857-13 3.758-17.012 3.81-20.875.272-.808-.738-1.291-.97-2.022-.966-.53.002-7.15-.045-14.713-.105-17.773-.14-32.618.42-38.42 1.446-4.818.854-5.318.862-6.895.115-3.044-1.44-6.023-1.813-12.65-1.59-3.263.11-13.757.215-23.322.233l-17.39.032-2.292 1.123c-9.021 4.418-13.347 4.521-12.079.288.615-2.05 1.377-1.967-12.535-1.365-6.326.273-10.64-.709-13.669-3.11-1.617-1.28-1.83-1.271-3.15.159-5.427 5.887-2.848 9.162 8.137 10.337 2.199.234 19.622.302 67.382.267l64.415-.049 1.889-.979c2.925-1.512 5.243-1.543 9.206-.118 3.53 1.269 6.312 1.809 7.967 1.548.66-.105 8.418-.304 17.242-.444 8.823-.14 17.376-.301 19.008-.36 1.63-.058 4.238.013 5.796.159 3.638.338 52.913.29 53.816-.053.362-.138 1.122-.738 1.688-1.333 1.31-1.377 1.613-1.36 3.925.216 3.043 2.073 5.184 2.404 9.995 1.547 5.065-.903 8.42-1.086 13.394-.73 3.077.22 10.767.327 22.552.31l17.883-.025 1.613-.846c2.28-1.195 4.37-1.152 10.073.215 3.366.806 4.787 1.022 6.47.988 2.77-.058 41.03-.567 41.924-.558.372.005 10.687.059 22.925.122l22.252.115.904-.668c.868-.641.942-.65 1.879-.251.535.23 1.265.53 1.619.671.828.325 9.785.282 12.431-.061 1.36-.177 4.525-.157 9.687.056l7.666.32.556-.698c.779-.974 3.106-1.992 3.422-1.497.212.334.186.516-.217 1.5-.3.731 6.919.77 18.249.102 2-.118 4.61-.109 5.796.023 4.623.51 27.77.155 27.77-.428 0-.804.64-.821.943-.025l.272.716 46.303-.123c25.468-.068 47.701-.134 49.406-.147 8.624-.07 13.812-4.076 16.169-12.491 1.203-4.3 1.365-7.513 1.207-23.94-.081-8.381-.141-15.512-.135-15.845.021-.966-.88-.742-1.998.495m-104.715-.293c-1.396.33-1.94.995-1.252 1.529 2.242 1.73 6.078 1.516 4.905-.277-1.013-1.543-1.587-1.74-3.653-1.252M7.124 57.955c.293.762-.542.98-1.57.411-.284-.157.596-.86 1.074-.86.18 0 .402.202.496.45m572.874 1.868c.297.296-.123.917-.623.917-.568 0-.906-.414-.662-.81.183-.293 1.027-.366 1.285-.107M574.67 69.1c.317.513-.167 1.32-1.283 2.142-2.216 1.628-2.926.582-.882-1.301 1.202-1.11 1.844-1.359 2.165-.841m-323.447 2.083c-.136.704-1.027.782-1.027.09 0-.386.173-.559.558-.559.386 0 .53.146.469.47m-122.906 6.119c.439.526-.089 1.5-.812 1.5-.749 0-.95-.725-.377-1.358.571-.63.765-.655 1.19-.142m505.75 20.605c.157 1.636-2.248 3.441-6.744 5.062-2.14.772-3.012.755-3.128-.061-.102-.709-.065-.736 3.989-3.087 1.854-1.074 3.667-2.185 4.03-2.467.99-.773 1.748-.547 1.853.553M38.824 98.996c0 .33-.76.596-.927.324a.332.332 0 0 1 .035-.393c.257-.257.892-.209.892.07m324.828.503c.071.491-.042.603-.615.603-.794 0-1.23-.736-.657-1.105.597-.385 1.178-.155 1.272.502m-12.623 1.412c0 .299-.18.538-.404.538-.225 0-.404-.239-.404-.538 0-.3.18-.539.404-.539.225 0 .404.24.404.539m112.831.288c0 .208-.212.419-.472.469-.464.09-.657-.482-.286-.853.283-.283.758-.042.758.384m50.233 1.51c-.097.82-.615 1.126-.852.505-.22-.574.07-1.224.543-1.224.269 0 .367.23.31.72" fill="#9C0404"/><path d="M19.682.788c-.91.286-3.235 1.552-3.235 1.761 0 .125-.214.227-.473.227-.98.004-7.546 5.864-8.758 7.818-.323.517-.787 1.09-1.033 1.27-.246.18-.61.724-.81 1.213-.201.487-.552 1.088-.779 1.336-.573.621-2.438 4.389-2.438 4.92 0 .239-.106.645-.237.902C.69 22.65-.141 27.888.367 30.005c.09.37.225 12.746.301 27.5.168 32.326.22 34.23.997 35.784.909 1.815 3.843 3.726 4.67 3.04.23-.19.496-.269.592-.173.095.094.037.173-.13.173-.166 0-.377.455-.469 1.011-.092.555-.288 1.328-.435 1.715-.636 1.682 1.687 5.352 3.91 6.173.466.171 1.058.423 1.315.56.257.135.71.247 1.005.247.296 0 .995.18 1.554.398.56.22 1.865.464 2.904.545 1.038.08 2.737.25 3.774.377 1.038.128 30.944.204 66.46.168l64.57-.066 1.71-.98c.942-.54 2.005-.982 2.364-.982.358 0 .893-.15 1.187-.334.426-.267.644-.267 1.071 0 .295.183.932.338 1.416.343.483.005 1.114.186 1.402.405.288.216.714.396.945.396.23.002.726.162 1.102.357.373.196 1.223.486 1.886.644 1.622.389 38.052.215 38.797-.182.678-.364 4.124-.355 7.03.017 1.536.196 11.166.28 29.251.253 29.025-.046 27.25.045 28.749-1.464.786-.791 1.182-.75 2.562.268 1.906 1.408 2.694 1.54 8.14 1.375 2.844-.085 5.503-.3 6.113-.492 1.362-.428 7.419-.431 12.133-.006 2.365.214 9.204.293 21.03.243l17.523-.073 1.54-.895c1.76-1.022 4.617-1.116 7.897-.257 5.643 1.477 6.722 1.64 9.6 1.45 1.541-.102 21.79-.246 44.996-.32 43.042-.138 56.74-.227 59.853-.394.962-.052 3.995.007 6.739.131 5.39.243 19.925.27 23.86.045 1.335-.076 3.823-.224 5.528-.33 3.483-.215 4.193-.2 7.818.156 2.798.275 103.086.18 118.493-.112 8.638-.163 10.919-.375 10.919-1.008 0-.12.4-.216.89-.216s1.006-.102 1.146-.227c.141-.124.68-.39 1.199-.592 1.488-.576 5.662-4.059 5.662-4.722 0-.19.097-.386.213-.435.413-.175 1.675-2.033 1.675-2.469 0-.24.242-.836.538-1.321.296-.485.539-1.149.539-1.474 0-.325.123-.666.27-.757.149-.092.27-.505.27-.919 0-.412.175-1.103.39-1.533.214-.432.468-1.694.565-2.805.097-1.113.237-2.69.31-3.506.075-.815.121-4.03.104-7.145-.016-3.114-.059-10.896-.092-17.294-.057-10.513-.107-11.68-.521-12.137-.316-.35-.38-.631-.207-.905.139-.22.254-.768.255-1.22.003-.454.133-.95.29-1.107.356-.356.441-6.123.14-9.396-.33-3.596-.349-4.887-.101-7.349.352-3.537.477-7.703.236-8.007-.122-.154-.301-1.07-.4-2.033-.226-2.21-1.383-5.93-1.844-5.93-.112 0-.204-.188-.204-.416 0-.647-1.01-2.467-1.464-2.642-.225-.086-.668-.707-.985-1.381-.317-.673-.655-1.223-.754-1.223-.098 0-.74-.516-1.43-1.147-1.064-.976-2.177-1.649-4.866-2.943-.258-.123-.888-.225-1.4-.225-.512 0-1.007-.121-1.097-.27-.209-.335-5.592-.36-5.945-.027-.14.134-.743.296-1.335.36-.593.067-1.265.203-1.493.304-.246.11-.639-.025-.972-.336-1.896-1.765.343-1.648-31.617-1.648h-28.846l-.272.982c-.174.632-.18 1.155-.012 1.465 1.009 1.886.03 1.95-1.775.113-.802-.815-1.589-1.481-1.747-1.481-.157 0-.547-.243-.866-.54-.506-.473-.947-.54-3.56-.534-2.025.001-2.852.087-2.579.265.224.144.662.262.976.265 1.262.008 4.338 1.909 7.082 4.373 3.531 3.172 3.66 3.262 4.329 3.05.754-.239.94-1.195.653-3.33-.31-2.296-.228-2.65.657-2.872.605-.152 11.243-.199 48.719-.218 4.196-.002 5.684.383 7.722 1.998 1.24.982 1.388.991 4.274.273 11.251-2.798 19.611 6.44 18.71 20.674-.128 2.03-.175 5.39-.102 7.465.406 11.715.1 14.134-2.033 16.112-1.348 1.249-4.525 2.184-5.442 1.601-1.073-.68-.328-21.032.92-25.203.783-2.612.626-3.468-.454-2.49-.759.687-.785.624-1.356-3.27-.577-3.934-1.1-5.68-2.18-7.266-1.527-2.244.697-2.07-25.56-2.001-12.842.034-28.382.045-34.536.024-6.154-.021-11.613-.024-12.132-.008-8.186.262-132.447.218-133.27-.047-.775-.25-1.24-.256-1.888-.028-1.223.429-89.749.511-92.796.086a146.918 146.918 0 0 0-3.727-.47c-1.319-.143-8.969.145-15.82.595-3.438.226-14.375.123-16.674-.156-1.721-.21-3.232-.197-5.707.044-2.45.24-14.614.346-44.75.393-237.612.366-228.806.314-230.917 1.385-3.945 2-5.728 7.648-5.383 17.06.773 21.084.841 20.074-2.063 30.196-2.028 7.066-1.83 10.363.777 12.865 1.907 1.833 2.247 3.692 1.708 9.328-.96 10.058-3.528 14.738-6.603 12.038-1.498-1.315-1.56-2.7-1.645-37.602-.034-14.087-.157-26.133-.272-26.769C1.25 21.731 9.304 8.847 18.214 3.95l1.863-1.024 28.718-.082c31.877-.093 29.687-.175 30.162 1.142.694 1.92 2.501 2.138 6.913.833 10.697-3.166 13.102-3.446 17.433-2.029 3.811 1.246 11.658 1.488 13.399.413 1.444-.893 9.95-.631 12.305.381 2.771 1.19 10.787.95 19.682-.587 1.294-.225 4.3-.291 9.57-.215 9.54.14 17.162.146 52.17.05 23.62-.064 28.208-.14 30.702-.503 4.383-.637 6.851-.231 12.102 1.99 1.702.718 3.842.577 5.86-.388 1.513-.724 2.196-.87 4.988-1.065 5.25-.367 106.116-.288 108.432.086 1.557.25 2.462.236 4.585-.073 1.918-.281 5.306-.385 12.34-.382 11.051.007 10.677-.066 10.158 1.993-1.111 4.413.314 5.225 4.311 2.456 5.67-3.928 8.892-5.173 12.503-4.832 1.186.112 3.674.181 5.526.152 1.854-.027 5.919.181 9.033.463 4.545.412 6.06.456 7.683.223 1.112-.16 3.357-.259 4.988-.22 1.63.039 5.325-.13 8.21-.375 9.037-.772 11.12-.093 10.7 3.489-.243 2.074.14 2.117 1.946.226 2.37-2.483 4.421-3.347 9.119-3.838 2.217-.233 4.178-.11 10.6.663 1.854.223 4.035.41 4.843.41 1.168.006 1.938.234 3.713 1.1 4.267 2.086 5.544 2.068 9.974-.13 1.597-.793 3.302-1.526 3.786-1.63 1.57-.334 27.273-.27 27.613.07.166.167.4 1.542.516 3.054.343 4.431 1.01 4.538 3.955.643 2.255-2.983 3.884-4.18 5.686-4.175 1.074.001 3.407-.6 5.295-1.366.31-.126-1.351-.226-3.91-.238-4.378-.016-4.462-.006-5.258.665-.444.376-1.2 1.011-1.679 1.416-.479.403-.872.84-.875.97-.005.186-1.03 1.246-1.207 1.246-.022 0-.053-.864-.07-1.917-.015-1.055-.14-2.029-.277-2.166-.148-.147-6.64-.217-15.999-.173l-15.75.076-1.415.784c-.78.432-1.415.887-1.415 1.011 0 .125-.245.227-.544.227-.3 0-.754.108-1.01.24-1.78.904-1.9.923-3.558.572-.896-.19-1.629-.451-1.629-.58 0-.127-.192-.232-.427-.232-.236 0-.933-.354-1.551-.788-1.382-.969-3.203-1.12-15.646-1.286-7.96-.107-8.375-.087-9.5.442-.65.305-1.301.555-1.452.555-.15 0-.272.1-.272.223 0 1.02-1.415.917-2.445-.18L462.634.601l-12.598.114c-6.928.061-12.78.12-13.001.128-.223.01-6.39-.049-13.705-.127-11.322-.121-13.366-.085-13.75.245-.247.213-1.178.736-2.067 1.16-.89.425-1.854.99-2.14 1.253-.288.264-.63.479-.76.479-.277 0-2.181 1.388-2.314 1.686-.33.742-.773.103-.561-.81.352-1.522.297-3.464-.11-3.802-.51-.424-139.836-.424-141.18 0-1.265.398-1.87.674-2.838 1.292-1.304.832-4.09.345-6.066-1.061l-.784-.56-51.17.105-51.17.106-4.584.629c-6.676.919-11.65.878-14.544-.117-2.596-.891-9.733-.912-15.114-.047-3.387.546-7.724.424-9.036-.255-1.941-1.003-14.313-.424-16.734.784-.478.238-1.214.432-1.636.432-.422 0-.767.109-.767.241 0 .279-1.675.578-3.64.652l-1.348.05-.081-.973c-.062-.733-.248-1.05-.754-1.282-.667-.302-59.549-.435-60.5-.135m312.866 11.435c1.92.16 3.583.35 3.698.419.231.144 2.263.144 70.862.037 26.913-.044 49.077-.167 49.251-.277.177-.11.38-.102.455.018.17.275 14.245.226 14.693-.052.181-.111.498-.064.705.107.26.217.654.233 1.302.053.512-.14 1.08-.163 1.262-.05.392.243 3.978.15 4.627-.12.244-.101.51-.075.593.056.175.283 5.96.242 6.86-.047.37-.12.776-.073 1 .114.21.174.513.233.677.132.367-.227 4.45-.245 4.81-.022.146.09.593.038.994-.114.516-.198.834-.19 1.095.025.264.22.594.225 1.19.017.515-.18 1.063-.196 1.461-.046.35.133.681.196.738.141.086-.086 2.675-.142 4.672-.103.296.006.902.003 1.347-.007.445-.01 1.598-.016 2.563-.013 20.57.055 120.697-.302 121.51-.433 3.255-.528 4.473 2.08 5.358 11.477.078.815.27 1.742.429 2.06.171.347.21 1.054.094 1.754-.427 2.592-.46 24.404-.036 24.828.507.505 3.111.83 3.574.446 1.098-.912 1.168-.042.118 1.456-.604.86-1.097 1.733-1.097 1.94 0 .207-.121.451-.27.542-.147.092-.269.403-.269.69 0 .288-.1.523-.221.523-.24 0-1.341 3.185-1.772 5.123-.149.673-.286 5.901-.309 11.733-.047 11.96-.406 14.591-2.192 16.073-.197.165-.359.393-.359.51 0 .29-1.887 2.15-2.183 2.15-.135 0-.245.091-.246.201-.002.243-1.307.877-1.804.877-.193 0-.351.13-.351.288 0 .312-4.56.2-6.13-.152-.48-.108-1.086-.107-1.348.002-.848.352-4.61.457-5.53.153-1.227-.404-12.556-.448-12.955-.048-.162.163-.578.296-.922.296-.343 0-1.078.286-1.631.636-1.47.927-1.99 1.025-2.892.545-2.438-1.296-4.316-1.563-10.65-1.514-3.188.025-6.706.04-7.819.035-1.111-.006-10.329-.064-20.48-.13-19.733-.127-20.22-.098-20.236 1.182-.005.386-.081.367-.473-.125-.763-.956-2.33-1.247-5.749-1.066-2.96.157-4.087.269-9.68.961-4.021.497-7.578.725-7.72.495-.072-.115-.578-.21-1.125-.212-.548 0-1.343-.183-1.768-.404-.424-.222-.977-.403-1.226-.403-.25 0-.6-.146-.778-.324-.411-.409-9.784-.412-11.13-.001-1.805.548-5.52 1.462-6.45 1.583-.519.068-1.185.23-1.481.36-1.365.598-7.305 1.025-7.773.56-.158-.16-.451-.29-.65-.29-.2 0-.631-.258-.958-.573-1.268-1.22-2.552-1.556-5.154-1.35-2.623.21-4.215.192-12.696-.129-6.51-.247-6.725-.244-9.975.169-1.334.168-4.246.276-6.47.24-9.469-.16-14.601-.079-16.043.251-3.455.791-3.935.913-4.448 1.12-2.663 1.072-6.17 2.764-6.291 3.035-.128.288-1.393.252-1.393-.038 0-.132-.324-.322-.717-.42-.394-.099-1.15-.537-1.679-.974-.529-.435-1.09-.793-1.245-.793-.157 0-.46-.242-.673-.538-.214-.296-.49-.539-.617-.539-.124 0-.614-.285-1.085-.633-1.644-1.211-6.822-2.274-7.546-1.55-.164.163-.672.295-1.131.295-.887 0-2.288.536-2.29.877 0 .11-.276.205-.609.212-.333.005-.91.183-1.281.395-.37.211-.984.39-1.36.394-.38.005-.82.143-.983.304-.202.203-2.578.275-7.536.232-12.433-.11-15.358-.063-15.947.252-.309.165-1.046.3-1.64.3-.594 0-1.155.12-1.247.27-.389.627-2.184.3-2.584-.473-1.027-1.991-3.125-2.714-7.847-2.703-1.974.005-3.89.123-4.26.262-.37.14-2.554.227-4.854.194-8.056-.113-15.348-.042-15.828.154-.714.291-10.622.412-11.138.137-.243-.129-1.432-.273-2.643-.318-1.21-.047-2.203-.178-2.203-.291-.005-.379-6.693.218-7.134.637-.141.134-.77.244-1.4.244-.629 0-1.208.105-1.287.233-.14.227-2.077.592-3.83.723-.46.034-1.208.144-1.657.243-.482.107-.893.063-.997-.105-.097-.157-.381-.285-.632-.287-.25 0-.809-.302-1.24-.673-.56-.483-1.133-.687-2.021-.718a93.969 93.969 0 0 1-2.317-.118l-1.483-.097c-1.247-.078-8.535.343-8.763.506-.319.23-7.517.173-14.182-.111-3.133-.133-5.654-.096-7.415.108-3.619.42-9.981.445-10.466.042-.342-.283-9.294-.29-38.843-.027-1.039.008-6.346-.06-11.796-.154-7.236-.125-9.908-.087-9.908.133 0 .17-.448.302-1.026.302-.566 0-1.263.178-1.551.395-.288.218-.917.4-1.4.404-.482.005-.876.131-.876.278 0 .15-.325.27-.722.27-.398 0-1.095.112-1.551.25a40.35 40.35 0 0 1-2.31.574c-.815.178-1.598.391-1.739.474-.14.082-.505.17-.809.196-.304.026-1.362.186-2.35.357-1.236.212-2.022.225-2.513.04-.391-.151-1.009-.273-1.373-.273-.362 0-.87-.106-1.127-.237a57.618 57.618 0 0 0-1.243-.604c-.425-.199-.844-.547-.928-.772-.222-.583-.626-.95-1.63-1.468-1.408-.728-44.153-.361-49.646.427-1.112.16-2.446.326-2.966.372-.519.045-1.428.168-2.022.27-.593.103-1.685.241-2.426.304-.741.065-1.63.257-1.975.43-.518.26-.82.21-1.752-.275-3.405-1.774-5.756-1.965-21.347-1.74-1.63.024-9.578.001-17.66-.05-15.628-.1-16.026-.073-17.808 1.197-.408.29-.935.529-1.173.529-.236 0-.43.121-.43.27 0 .147-.22.268-.489.268-.268 0-.99.243-1.605.54-.613.297-1.229.54-1.366.54-.14 0-.6.18-1.024.402-.426.222-.986.403-1.244.404-.26.002-.473.123-.473.272 0 .147-.479.269-1.066.269h-1.064l.377-1.252c1.077-3.583-1.946-4.315-13.614-3.29-3.114.273-4.069.257-6.605-.114-3.837-.561-4.437-.71-5.3-1.313-.393-.275-.846-.502-1.006-.502-.16 0-.728-.424-1.262-.943-.535-.52-1.143-.943-1.354-.943-.208 0-.38-.121-.38-.27 0-.149-.378-.27-.84-.27-.747 0-.82-.067-.654-.607.485-1.577.936-3.949.944-4.964.007-.618.15-1.17.322-1.228 1.382-.46.115-12.806-1.362-13.28-1.58-.506-2.95-3.833-2.176-5.281.144-.267.26-1.034.26-1.702 0-.668.122-1.29.271-1.381.147-.093.269-.578.269-1.08 0-.5.111-.98.245-1.062.136-.084.329-.637.43-1.228.1-.592.292-1.145.428-1.228.134-.084.246-.57.246-1.08 0-.51.108-.927.24-.927.227 0 .326-.448.73-3.303.09-.631.272-1.262.405-1.403.132-.14.244-.928.246-1.752.003-.823.114-1.67.25-1.886.154-.241.141-.589-.03-.91-.198-.368-.185-.696.045-1.127.24-.45.247-.75.027-1.161-.163-.306-.296-.997-.296-1.535 0-.539-.13-1.222-.29-1.518-.19-.359-.197-.647-.019-.862.376-.451.347-6.415-.032-6.872-.222-.268-.218-.496.016-.871.215-.343.236-.724.067-1.17-.471-1.238-.206-10.685.328-11.733.259-.505.469-1.092.469-1.305 0-.214.243-.696.539-1.073.297-.377.54-.847.54-1.045 0-.69 1.962-2.533 2.698-2.533.384 0 .814-.115.955-.256.433-.432 25.816-.902 27.014-.5.334.112.918.085 1.3-.06.465-.177.868-.168 1.237.03.398.213.757.204 1.33-.034.616-.254.871-.253 1.184.006.275.23.627.256 1.145.084.42-.139 5.992-.212 12.744-.168l12.402.08c1.996.008 155.639-.31 180.772-.374 19.582-.052 33.486-.193 34.78-.354 1.428-.18 2.976-.18 4.583-.004 3.825.42 12.362.544 15.907.23 1.78-.157 5.784-.364 8.897-.458 3.114-.095 5.706-.213 5.76-.264.056-.048.42-.037.81.028.39.065 2.28.248 4.2.408m26.032 9.835c-3.475.424-5.498.859-5.618 1.21-.049.147-.5.267-1.001.267-.504 0-1.312.221-1.8.493-.485.274-1.237.584-1.67.691-.434.108-1.087.432-1.453.72-.366.286-.804.522-.974.522-.171 0-.73.36-1.245.798-.513.438-1.084.802-1.269.809-.184.006-.89.556-1.565 1.224-.678.667-1.36 1.213-1.518 1.213-.352 0-3.457 3.158-3.457 3.517 0 .14-.121.257-.268.257-.15 0-.27.148-.27.329 0 .181-.29.577-.644.881-.608.523-1.354 1.673-2.278 3.51-.223.444-.493.868-.598.942-.327.23-1.872 3.821-1.872 4.352 0 .275-.107.501-.238.501-.456 0-1.189 3.213-1.763 7.728-.482 3.801.14 10.539 1.144 12.407.174.325.317.901.317 1.281 0 .38.121.693.27.693.149 0 .27.417.27.926 0 .512.121 1.003.269 1.096.148.09.27.383.27.648 0 .882.82 2.142 1.629 2.5.438.194.797.444.797.556 0 .307 2.909.246 3.101-.065.388-.629.935-.284.667.422-.342.898-.338 2.466.006 2.678.149.092.27.46.27.815 0 .786 1.244 3.095 1.93 3.581.273.195.497.473.497.62 0 .285 1.216 1.59 1.481 1.59.088 0 .474.291.86.647 1.428 1.327 7.808 4.206 9.315 4.206.385 0 .741.108.79.24.078.205 4.398.647 5.618.574 2.51-.15 4.044-.366 4.044-.568 0-.136.298-.246.66-.246.762 0 1.742-.393 3.176-1.271 1.318-.808 1.646-.778 2.009.18.203.543.655.952 1.407 1.277.608.264 1.105.573 1.105.686 0 .309 3.717.25 3.91-.063.092-.149.414-.27.715-.27.302 0 .872-.212 1.266-.473 1.14-.75 1.768-1.137 2.126-1.308.432-.209 3.279-3.108 4-4.075 1.966-2.634 3.36-9.284 2.04-9.724-.168-.056-.307-.503-.307-.993 0-2.883-2.027-3.674-4.164-1.626-.697.668-1.333 1.213-1.414 1.213-.218 0-2.9 1.98-3.004 2.22-.05.113-.315.207-.59.207-.277 0-.576.121-.668.27-.092.147-.456.269-.81.269-.352 0-.71.11-.792.242-.336.547-6.093 1.455-6.52 1.027-.106-.105-.54-.19-.966-.19-.853 0-4.242-1.008-4.65-1.382a1.08 1.08 0 0 0-.633-.236c-.21 0-.714-.273-1.123-.607a21.616 21.616 0 0 0-1.344-1.01c-2.058-1.384-6.471-6.55-6.489-7.599-.003-.196-.244-.658-.534-1.029-.29-.37-.53-.923-.533-1.227-.004-.305-.114-.669-.246-.81-.251-.265-.778-2.26-1.027-3.895-.08-.519-.248-1.072-.374-1.23-.207-.261-.157-2.548.11-4.97.147-1.338.752-3.295 1.173-3.797.197-.234.359-.616.359-.849 0-1.593 5.293-6.948 6.868-6.948.227 0 .411-.102.411-.226 0-.125.515-.379 1.145-.566.631-.186 1.351-.445 1.602-.575 1.62-.836 10.8.025 11.933 1.12.141.136.693.247 1.226.247.534 0 1.086.107 1.227.237.262.239 4.337 1.112 5.183 1.11 1.637-.006 2.97-.784 4.092-2.39.743-1.061.938-7.946.262-9.237a29.981 29.981 0 0 1-.517-1.043c-.567-1.238-3.824-1.632-5.714-.69-.463.232-1.18.42-1.592.42-.414 0-.826.121-.918.27-.575.928-3.37-.384-3.37-1.58 0-2.366-5.003-4.708-6.728-3.15-.472.428-.67.467-1.04.207-.757-.534-2.245-1.14-2.713-1.105-.24.018-1.713.188-3.269.377m226.335-.14c-.09.146-.474.268-.85.268-.812 0-2.06.66-3.188 1.684-.448.407-.951.74-1.12.742-.257 0-1.653 1.479-3.741 3.963-.574.683-.938.58-.95-.271-.004-.325-.187-.827-.404-1.115-.218-.286-.396-.744-.396-1.016 0-2.321-1.658-3.534-4.85-3.546-4.368-.014-3.94-3.63-3.886 32.973l.044 29.34.587.588c.55.55.898.595 5.492.708 8.409.206 12.442.426 12.765.693.437.36 11.419.338 11.781-.024.156-.156.796-.282 1.426-.282.629 0 1.218-.121 1.31-.27.092-.149.493-.272.893-.275.925-.008 4.468-1.25 4.587-1.61.05-.15.35-.271.665-.271.706 0 3.808-1.544 4.683-2.33a7.459 7.459 0 0 1 1.43-.957c.898-.434 5.432-4.378 6.54-5.686 1.879-2.217 2.906-3.58 2.906-3.855 0-.165.242-.52.538-.788.296-.269.54-.61.54-.757 0-.149.28-.646.624-1.105.34-.46.786-1.259.988-1.778.2-.52.45-1.064.552-1.213.265-.38 1.208-3.674 1.735-6.052.795-3.583.492-10.67-.561-13.167-.205-.487-.372-1.16-.372-1.497 0-.702-.578-2.06-.877-2.064-.111-.001-.202-.317-.202-.702 0-.385-.218-1.022-.487-1.415-.267-.393-.71-1.231-.983-1.862-.276-.63-.58-1.145-.678-1.145-.099 0-.468-.517-.822-1.146-.354-.63-1.043-1.525-1.532-1.986-.49-.463-.89-.968-.89-1.121 0-.154-.637-.807-1.415-1.451s-1.666-1.414-1.974-1.71c-.605-.586-1.12-.966-3.277-2.42-.775-.523-1.535-.951-1.689-.951-.338 0-1.325-.545-1.831-1.011-.202-.185-.577-.337-.833-.337-.257 0-.582-.103-.723-.23-.14-.126-.835-.386-1.543-.575-.709-.191-1.353-.452-1.432-.58-.08-.127-.561-.232-1.07-.232-.512 0-.93-.122-.93-.27 0-.148-.553-.27-1.23-.27-.677 0-1.435-.11-1.684-.243-.251-.133-2.154-.327-4.229-.43-2.077-.101-4.78-.416-6.01-.7-2.533-.582-3.19-.629-3.427-.244m-163.247.718c-.964.185-2.321.34-3.017.348-.697.007-1.34.133-1.431.282-.093.149-.457.27-.81.27-.353 0-.717.121-.808.268-.092.15-.356.27-.587.27-.508 0-3.504 1.785-4.285 2.553-.308.301-.884.79-1.281 1.084-.397.294-.722.633-.722.752 0 .223-.269.58-1.213 1.624-.595.657-3.101 5.387-3.101 5.853 0 .162-.243.796-.539 1.409-.298.613-.54 1.398-.54 1.744 0 .344-.104.836-.232 1.095-.406.82-1.116 3.217-1.116 3.766 0 .291-.364 1.032-.809 1.647-.444.614-.808 1.229-.808 1.365a.39.39 0 0 1-.225.34c-.278.111-2.202 3.114-2.202 3.437 0 .131-.364.93-.809 1.775-.445.846-.808 1.693-.808 1.883 0 .187-.183.495-.405.679-.223.184-.404.565-.404.844 0 .282-.107.722-.236.98-.424.839-.843 2.377-.843 3.098 0 .389-.122.782-.269.874-.37.228-.34 2.113.046 2.96.242.53.242.769 0 1.011-.174.173-.316.584-.316.914 0 .329-.175.942-.39 1.36a79.48 79.48 0 0 0-1.226 2.652 79.692 79.692 0 0 1-1.364 2.923c-.29.571-.525 1.192-.525 1.383 0 .191-.167.484-.37.654-.205.17-.517.881-.695 1.583-.178.703-.437 1.487-.572 1.744-.3.562-.339 4.788-.044 4.788.113 0 .325.256.47.568.238.505.69.817 2.353 1.63.259.127.828.229 1.266.229.48 0 1.092.272 1.527.675.4.37.932.674 1.183.674.249 0 .537.083.639.184.713.712 4.272 1.193 4.623.625.092-.149.524-.27.96-.27.436 0 .792-.122.792-.27 0-.148.184-.269.408-.269 1.905 0 4.798-4.927 4.592-7.82l-.105-1.481 1.378-.652c1.257-.596 1.755-.657 5.709-.71 11.19-.148 13.473-.12 14.947.184l1.558.322.35 1.642c.192.9.515 1.909.719 2.237.204.328.37.783.37 1.011 0 .228.122.414.27.414.15 0 .27.22.27.49 0 1.217 4.498 4.363 6.235 4.363.41 0 .82.123.912.273.242.39 9.152.313 10.478-.09 1.95-.592 2.643-4.177 1.317-6.796-.298-.589-.634-1.491-.744-2.006-.112-.514-.298-1.12-.414-1.349-.588-1.145-1.607-3.458-1.607-3.644 0-.118-.26-.774-.576-1.456a46.487 46.487 0 0 1-.84-1.917c-.146-.37-.371-.885-.502-1.142a2.583 2.583 0 0 1-.24-.98c0-.664-1.108-1.384-2.13-1.384-.442 0-.87-.108-.951-.24-.081-.132-.605-.316-1.162-.412a290.51 290.51 0 0 1-1.868-.326c-2.817-.507-1.841-3.875 1.124-3.875 1.163 0 2.616-2.567 1.752-3.1-.147-.091-.269-.437-.269-.767 0-.332-.242-1.078-.54-1.66-.296-.58-.539-1.247-.539-1.479 0-.233-.163-.661-.362-.954-.199-.293-.53-1.116-.738-1.831-.207-.714-.59-1.529-.85-1.809-.262-.28-.478-.666-.48-.857 0-.193-.305-.877-.674-1.522-.369-.646-.67-1.382-.67-1.634 0-.254-.24-.718-.533-1.034-.403-.432-.567-1.085-.672-2.679-.247-3.791-.823-6.017-1.556-6.017-.113 0-.205-.193-.205-.429 0-.526-1.048-1.436-1.668-1.45-.252-.004-.532-.129-.623-.278-.092-.148-.645-.27-1.23-.27-1.196 0-1.24-.055-.617-.783 1.095-1.278 1.76-5.88.893-6.18-.143-.05-.26-.235-.26-.413 0-.984-3.128-3.138-4.554-3.138-.402 0-.845-.107-.986-.24-.435-.404-3.131-.47-4.974-.12m40.62.002c-.06.06-3.726.117-8.146.125-8.047.013-9.288.134-9.288.9 0 .227-.121.412-.27.412-.147 0-.269.326-.269.724 0 .4-.145 1.432-.325 2.294-.333 1.62.03 6.31.518 6.663.12.087.513.744.873 1.46.668 1.322 1.773 2.338 2.548 2.338.236 0 .43.093.43.204 0 .712 6.995 1.283 7.414.605.092-.147.675-.276 1.297-.286.622-.01 1.817-.163 2.658-.341 4.533-.958 4.926-.353 4.976 7.638.05 8.066-.024 7.427 1 8.425.493.482 1.17 1.27 1.501 1.752.332.482.725.876.873.876.64 0 1.58 1.693 1.58 2.841 0 .749-1.424 2.752-2.988 4.206-.581.539-1.057 1.063-1.057 1.165 0 .102-.176.362-.393.579-.309.309-.393 1.22-.39 4.227.002 2.107-.124 4.487-.28 5.285-.739 3.775-.205 8.853 1.076 10.228.29.31.527.647.527.749 0 .377.97.9 1.684.907.408.005.743.144.743.308 0 .189.414.254 1.145.174.631-.066 1.692.043 2.359.245 2.412.726 2.847.815 3.775.762 1.404-.08 2.695-.411 2.695-.693 0-.136.298-.247.66-.247.74 0 3.925-2.766 3.925-3.409 0-.212.181-.663.404-1.003 1.158-1.768.943-5.673-.382-6.912-.711-.668-1.182-1.808-1.017-2.475.084-.344.341-1.354.57-2.243.23-.89.418-2.17.42-2.844.002-.675.142-1.366.31-1.534.463-.46.49-18.794.031-19.253-.414-.414-.474-5.775-.068-6.026.15-.092.27-.352.27-.582 0-.979.88-2.2 2.002-2.778 1.302-.67 6.126-.888 6.71-.304.161.162.693.295 1.184.295.488 0 .89.105.89.236 0 .475 3.912 1.003 4.183.563.089-.144.398-.26.685-.26.287 0 .523-.122.523-.27 0-.148.273-.27.607-.27.821 0 2.609-2.136 3.25-3.883.894-2.441.792-7.71-.148-7.71-.113 0-.208-.273-.213-.607-.01-.652-.843-1.82-1.3-1.82-.153 0-.47-.273-.703-.606-.505-.722-15.719-1.08-19.284-.456-3.213.564-3.515.585-4.256.297-.404-.158-3.101-.365-5.992-.46-2.892-.096-6.194-.208-7.337-.248-1.144-.04-2.13-.024-2.19.037m55.787.089c-6.831.104-8.902.214-8.99.476-.06.189-.258.491-.436.674-.818.843-1.433 6.398-.707 6.398.149 0 .27.304.27.675 0 .37.122.674.269.674.149 0 .27.204.27.455 0 .249.265.736.587 1.079l.589.626-.615.574c-.598.556-.61.666-.425 3.84.288 4.945.246 12.749-.094 17.42-.167 2.3-.296 5.756-.29 7.684.007 1.929.007 3.656-.001 3.842-.01.186-.016 1.248-.016 2.359 0 1.113-.007 2.236-.015 2.494-.029 1.023-.003 5.424.034 5.638.023.124.016.348-.013.496-.561 2.835.143 8.09 1.134 8.466.914.347 20.015.153 21.6-.22.889-.21 1.418-.22 1.64-.036.18.15 1.38.306 2.665.346 1.286.039 2.338.165 2.338.28 0 .113 1.688.157 3.754.095 2.739-.082 3.887-.02 4.247.227 3.332 2.303 9.523-1.59 9.523-5.99 0-.502.123-1.139.27-1.417.163-.303.171-.566.022-.659-.135-.084-.242-.796-.234-1.582.006-.784-.11-1.663-.26-1.952a30.59 30.59 0 0 1-.635-1.333c-.378-.851-1.15-1.747-1.51-1.759-.119-.003-.517-.242-.889-.532-.645-.504-1.177-.527-12.603-.534l-11.93-.006-.044-.607c-.022-.333-.084-1.151-.137-1.82-.168-2.151-.163-4.328.011-4.503.094-.092.17-.574.17-1.07 0-1.911 2.139-3.335 4.492-2.994 2.042.298 3.896.51 4.405.504.222-.002 1.296-.04 2.385-.081 1.088-.042 2.04.02 2.112.137.243.393 8.239.068 8.967-.364 2.892-1.716 4.131-5.432 2.619-7.853-.222-.355-.212-.562.032-.808.398-.398.437-1.473.062-1.705-.15-.092-.27-.627-.27-1.192 0-1.079-.872-2.26-1.916-2.591-.281-.09-.511-.256-.511-.37 0-.485-2.92-.89-5.27-.732-1.328.09-4.84.238-7.805.328-2.967.093-5.515.26-5.662.376-1.914 1.486-4.18-.586-4.18-3.823 0-4.154.265-4.35 5.886-4.334 2.762.009 4.628-.095 4.842-.27.246-.2.442-.19.662.03.407.407 1.625.399 2.036-.012.215-.215.324-.226.324-.03 0 .203 1.812.292 5.864.289 6.872-.003 7.617-.235 7.617-2.36 0-.578.115-1.12.256-1.207.331-.205.325-3.86-.005-4.065-.14-.084-.25-.642-.25-1.24 0-.886-.174-1.253-.945-2-.52-.505-.944-1.032-.944-1.173 0-.358-1.475-1.372-1.996-1.372-.236 0-.43-.121-.43-.268 0-.15-.218-.27-.485-.27s-.6-.104-.741-.23c-1.016-.91-13.794-1.375-30.7-1.118m-356.444.275c-11.488.168-12.373.385-10.737 2.645.5.69.501.738.038 1.187-.454.44-.48 1.663-.467 21.957.014 23.895-.055 22.95 1.766 23.711.55.23.888.498.75.597-.337.244-2 2.4-2 2.595 0 .085-.316.656-.7 1.266-1.99 3.151.105 9.664 3.107 9.664.29 0 .602.121.694.269.092.148.699.27 1.347.27.65 0 1.257.121 1.35.27.23.372 2.112.34 2.496-.044.236-.236.415-.225.739.044.323.268.503.278.74.042.17-.172.712-.312 1.204-.312s1.103-.112 1.362-.246a53.956 53.956 0 0 1 2.011-.938c.85-.38 1.699-.935 1.886-1.236.186-.301.45-.545.583-.545 1.82 0 3.456-6.911 2.204-9.312-.23-.44-.417-1.125-.419-1.525 0-.4-.123-.8-.27-.891-.419-.26-.326-3.828.122-4.693.381-.741.812-.927 3.518-1.522.445-.099 3.183-.225 6.087-.28 3.58-.068 5.88-.24 7.145-.536 1.026-.237 2.322-.496 2.878-.572.557-.076 1.08-.248 1.162-.38.082-.133.448-.241.812-.241.365 0 1.145-.303 1.732-.673.587-.372 1.199-.675 1.359-.675.379 0 4.033-3.717 4.033-4.102 0-.164.31-.704.692-1.202.38-.5.76-1.328.843-1.841.084-.515.319-1.073.52-1.24.205-.17.371-.711.371-1.203 0-.491.104-.959.23-1.037.128-.079.309-1.088.406-2.247.097-1.156.304-2.525.461-3.04.935-3.078 1.127-4.124 1.123-6.1-.007-2.013-.296-3.54-.905-4.742-.13-.259-.236-.652-.236-.877 0-.225-.092-.408-.204-.408-.113 0-.378-.394-.59-.876-.435-.987-.448-1.002-2.928-3.506-.992-1-1.94-1.82-2.108-1.82-.168 0-.45-.171-.624-.383-.304-.367-2.67-1.568-4.533-2.302-.482-.19-.877-.438-.877-.552 0-.113-.333-.273-.74-.354a55.959 55.959 0 0 1-1.955-.451c-.668-.165-1.698-.41-2.292-.544a282.1 282.1 0 0 1-2.83-.666c-2.107-.51-6.75-.6-20.356-.403m118.915-.066c-2.43.045-4.167.194-4.384.373-.294.245-.357 5.311-.349 28.303l.011 28.006.934.605c.9.582.933.665.936 2.289.002.942.122 1.686.272 1.686.149 0 .27.186.27.414 0 .846 1.338 2.55 2.003 2.55.233 0 .424.11.424.243 0 1.003 5.357.961 6.367-.05.107-.105 7.816-.192 17.134-.192 9.622 0 16.94-.104 16.94-.238 0-.131.231-.3.513-.372 1.15-.301 1.7-7.246.78-9.861-.918-2.611-1.926-3.726-4.142-4.583-1.45-.56-12.742-.678-17.142-.178-2.307.26-5.188-.047-5.882-.63-.538-.45-.59-.863-.561-4.493.005-.594-.14-1.676-.322-2.406-.262-1.051-.262-1.35.002-1.438.182-.061.333-.28.333-.487 0-1.37 16.036-1.706 16.872-.352.58.94 4.834-.045 6.331-1.466 2.794-2.65 3.456-11.252.94-12.216-.23-.09-.419-.342-.419-.562 0-.503-1.064-1.409-1.667-1.42-.253-.005-.533-.13-.623-.278-.23-.37-1.574-.341-1.958.042-.236.236-.409.231-.715-.023-.25-.208-.635-.255-1.022-.126-.933.312-6.52.316-6.733.003-.12-.178-.51-.168-1.147.026-.529.164-1.02.202-1.091.086-.072-.115-2.089-.226-4.483-.25-5.128-.046-4.829.07-4.812-1.864.022-3.137.812-4.98 2.413-5.64 1.14-.468 4.565-.946 5.337-.742 2.053.54 12.944 1.1 13.358.686.157-.159.566-.286.91-.286.342 0 .834-.109 1.091-.24a56.08 56.08 0 0 1 1.218-.589c2.579-1.206 3.826-3.814 3.59-7.5-.144-2.236-.304-2.937-1.034-4.519-.257-.556-1.42-1.24-3.44-2.022-1.388-.535-15.172-.451-15.839.099-.233.192-.451.183-.707-.03-.377-.313-12.008-.515-20.507-.358m-255.261.95c-2.066 1.949-1.344 6.075 1.07 6.11.625.01.813.39.337.683-.149.093-.27.403-.27.691 0 .288-.094.523-.21.523-.117 0-.377.577-.58 1.28-.202.704-.481 1.43-.624 1.61-1.236 1.584-1.171 16.861.073 17.287.146.048.264.308.264.579 0 .268.364 1.18.808 2.027.825 1.567 1.065 3.406.573 4.383-.945 1.877-1.381 2.85-1.381 3.076 0 .144-.181.443-.402.664-.33.329-.409 1.48-.438 6.384-.068 11.355.076 15.015.595 15.015.135 0 .245.234.245.522 0 .288.121.599.268.69.149.091.27.35.27.575 0 .73.74 1.178 1.95 1.178.647 0 1.31.132 1.472.294.205.204.453.21.809.02.326-.175 4.668-.274 11.902-.27 7.29.003 11.505-.093 11.715-.267.181-.15 1.36-.339 2.62-.42 6.932-.444 9.221-.93 12.513-2.652 2.249-1.178 3.082-1.717 3.697-2.395.391-.43.836-.78.991-.78.395 0 4.75-4.783 4.864-5.34.052-.251.31-.7.573-.997.631-.714 2.305-4 2.815-5.526.847-2.545 1.721-4.889 1.88-5.047.09-.092.164-.667.164-1.278s.188-1.83.418-2.71c.228-.878.391-1.844.362-2.145-.029-.302.042-.89.157-1.312a1.914 1.914 0 0 0-.147-1.431c-.285-.532-.29-.715-.023-.878.24-.15.295-.741.191-2.073-.296-3.782-.47-5.105-.712-5.356-.134-.14-.246-.597-.246-1.014 0-.417-.105-.969-.232-1.228a16.64 16.64 0 0 1-.57-1.41c-1.01-2.838-1.257-3.407-1.639-3.776-.23-.222-.58-.828-.778-1.347-.195-.52-.765-1.327-1.265-1.794-.5-.468-.907-1.007-.907-1.2 0-.316-3.454-3.746-3.774-3.747-.075 0-.56-.364-1.08-.809-.518-.443-1.085-.807-1.26-.807-.172 0-.675-.304-1.117-.675-.44-.37-.964-.678-1.166-.68-.2-.004-.668-.243-1.039-.533-.37-.291-.94-.53-1.265-.534-.325-.003-.666-.128-.757-.275-.092-.149-.438-.27-.772-.27-.331 0-.72-.102-.86-.228-.14-.125-.984-.437-1.873-.694-.89-.257-1.86-.571-2.157-.697-.862-.37-2.344-.599-8.897-1.378-5.15-.612-16.02-.389-16.47.34-.078.127-.492.23-.92.23-.428 0-.852.122-.944.27-.09.148-.343.27-.56.27-.217 0-.881.308-1.477.683-1.244.785-1.603.688-1.603-.433 0-1.909-3.494-2.569-5.181-.979m70.696-.692c-2.242.298-2.27.356-2.3 5.06a215.655 215.655 0 0 1-.245 7.82c-.192 3.722-.161 4.456.217 5.357.243.575.442 1.272.442 1.55s.113.506.25.506c.14 0 .33.248.426.549.246.773 1.174 1.587 2.357 2.065 1.294.526 1.258.989-.202 2.66-.994 1.134-1.754 2.222-1.754 2.51 0 .157-.307.837-.683 1.51-2.4 4.3-2.023 10.919.691 12.143 1.338.604 1.548 2.4.612 5.219-.327.983-.6 2.114-.607 2.514-.007.4-.134.8-.281.891-.15.092-.27.56-.27 1.042 0 .48-.138 1.01-.305 1.177-.409.41-.396 7.163.013 7.3.16.054.291.36.293.682.002.742 1.216 3.174 1.808 3.617.515.385 2.666.458 2.89.099.08-.133.603-.324 1.161-.427.558-.104 1.378-.355 1.823-.558 1.1-.504 3.009-1.181 4.314-1.532.593-.159 1.21-.392 1.37-.516 1.26-.974 4.931-.144 4.957 1.122.005.227.197.681.429 1.011l.419.599h25.57l.472-.722c.277-.42.458-1.176.44-1.82-.018-.603.073-1.229.202-1.39.135-.164.13-.656-.01-1.141-.158-.553-.147-.91.035-1.023.834-.517-.484-5.946-1.736-7.141-1.153-1.102-5.578-1.026-5.589.095-.002.113-.385-.16-.85-.607-.468-.444-1.075-.81-1.35-.81-.273 0-.498-.113-.498-.252 0-.762-10.83-.757-11.754.004-.175.146-1.102.14-2.292-.016-1.097-.142-2.207-.262-2.462-.267-.588-.011-1.578-1.894-1.383-2.635.079-.3.01-.63-.15-.73-.988-.61.132-6.349 1.24-6.349.194 0 .354-.12.354-.27 0-.149.219-.27.485-.27.267 0 .618-.133.782-.294.393-.395 7.625-.361 8.936.04.542.167 1.358.414 1.813.548 1.116.33 4.626.313 4.835-.024.09-.149.406-.27.7-.27 4.414 0 7.974-7.855 5.245-11.574-.527-.717-.958-1.388-.958-1.49 0-1.909-8.826-3.908-11.331-2.567-1.78.95-10.995.21-11.544-.929-.969-2.009-1.085-5.451-.199-5.856.384-.174.697-.419.697-.543 0-.125.418-.227.927-.227.512 0 1.003-.121 1.096-.27.23-.375 6.413-.352 6.79.026.214.212.463.206.898-.027.466-.251.738-.25 1.209.001.465.25.742.253 1.195.01.456-.244.683-.241.993.018.222.184 1 .32 1.73.304.73-.018 1.396.084 1.483.223.21.34 1.203.327 1.203-.014 0-.374.901-.34 1.29.048.231.231.483.24.93.03.336-.158 1.12-.44 1.744-.627 1.352-.404 3.115-1.943 3.622-3.16.2-.481.456-.876.569-.876.112 0 .204-.477.204-1.061 0-.586.113-1.134.252-1.22 1.192-.736-.38-8.274-1.802-8.63-.89-.223-4.609.108-4.806.429-.08.13-.378.238-.662.238-.493 0-1.067.28-3.287 1.603-1.172.698-1.559.56-1.559-.56 0-1.597-4.732-3.137-5.553-1.809-.19.306-1.186.288-1.186-.022 0-.146-.36-.154-.877-.021-.77.199-9.756.161-19.884-.081-1.852-.045-3.672-.042-4.044.008m116.414.165c-.882.68-1.04 1.789-1.01 7.087.028 4.775.18 6.132.834 7.443.127.258.232.695.232.973 0 .279.282.92.625 1.426a13.97 13.97 0 0 1 1.01 1.79c.211.48.476.87.588.87.36 0 .218.73-.207 1.084-.886.736-2.053 2.82-2.315 4.137-.15.762-.395 1.774-.542 2.253-.149.485-.249 3.751-.23 7.414.035 6.045-.006 6.655-.524 7.963-1.653 4.182 1.146 8.962 5.248 8.962.649 0 .932.123.932.405a.406.406 0 0 1-.405.404c-.223 0-.404.096-.404.212 0 .116-.393.443-.872.726-1.294.764-3.106 2.514-3.572 3.448-.417.836-.576 3.702-.205 3.702.112 0 .354.335.54.743.366.804 2.187 2.224 2.855 2.224.227 0 .487.121.58.269.092.148.713.27 1.38.27.669 0 1.467.134 1.774.299.983.526 7.226-.489 7.226-1.174 0-.374 1.163-.21 1.653.233.605.548 2.111.318 2.786-.427.475-.525.474-1.414-.008-3.747-.128-.615-.078-.974.155-1.118.345-.213.419-7.01.113-10.513-.071-.815-.124-1.603-.118-1.752.236-5.65 1.385-6.32 6.64-3.87.908.423 1.848.77 2.089.77.243 0 .44.095.44.211 0 .117.388.442.864.722 1.155.682 3.432 3.131 3.442 3.7.003.253.128.533.277.624.149.092.27.402.27.69 0 .288.121.523.268.523.15 0 .27.401.27.89 0 .49.106 1.006.233 1.146.13.141.452 1.105.719 2.144.265 1.037.707 2.365.978 2.949.274.584.497 1.221.497 1.418 0 .196.11.568.244.825.136.258.59 1.167 1.011 2.02.423.85.858 1.549.97 1.549.11 0 .201.194.201.429 0 1.303.766 1.441 8.14 1.45 4.337.006 6.989-.092 7.094-.261.09-.148.406-.269.699-.269 3.385 0 4.134-5.252 1.17-8.214-.36-.363-.656-.791-.656-.952 0-.161-.226-.742-.501-1.292s-.576-1.403-.67-1.893c-.094-.49-.36-1.082-.592-1.313-.231-.231-.489-.76-.573-1.178-.082-.416-.561-1.203-1.064-1.753-.503-.549-.914-1.17-.914-1.38 0-.36-.411-.866-3.137-3.855a189.936 189.936 0 0 1-2.292-2.57c-.647-.741-1.268-1.388-1.378-1.439-.112-.048-.202-.233-.202-.409 0-.176-.361-.757-.801-1.29-1.406-1.706-1.372-3.145.099-4.148 1.672-1.14 2.198-1.438 2.588-1.464.745-.052 2.145-1.574 2.208-2.404.113-1.48-1.107-2.058-2.902-1.375-.922.35-1.065.204-.61-.631 1.037-1.906 3.462-6.9 3.462-7.13 0-.148.166-.407.37-.577.204-.17.524-.854.71-1.522.188-.67.445-1.28.575-1.359.127-.079.23-.554.23-1.056 0-.501.122-.987.271-1.079.149-.09.27-.943.27-1.894 0-3.444-2.069-5.466-5.797-5.663-1.91-.102-3.095-.847-3.1-1.947 0-.184-.094-.336-.205-.336-.114 0-.327-.256-.473-.568-.236-.503-.689-.817-2.352-1.63-.555-.27-4.618-.31-4.88-.047-.1.1-.455.207-.788.24-2.462.23-3.784.405-3.973.522-.262.161-2.347-.885-3.085-1.55-.616-.557-3.623-.665-4.434-.16a1.11 1.11 0 0 1-1.006.089c-.75-.332-3.691-.382-4.076-.071-.185.148-.549.178-.81.066-.923-.395-13.64-.426-14.147-.034m150.633 1.255c1.002.663 1.398.668 3.186.04 1.718-.603 2.29-.438 3.306.952 2.812 3.848 3.421 4.397 4.908 4.4.487 0 1.336-.193 1.886-.427 4.886-2.089 5.82-1.754 6.325 2.268.678 5.401-.95 6.684-6.553 5.166-12.435-3.37-15.791-3.217-21.976 1-9.896 6.747-9.974 22.164-.165 32.27 7.456 7.683 16.835 8.438 25.784 2.078 3.082-2.19 3.44-2.032 3.417 1.502-.055 8.257-11.347 15.595-13.513 8.781-.49-1.54-.94-1.676-2.085-.63-9.088 8.303-32.447-1.513-26.604-11.177 2.043-3.378 1.417-4.191-1.768-2.299-1.875 1.113-3.355 1.537-4.426 1.268-1.125-.283-3.285-7.803-3.455-12.028l-.08-2.022 1.586-.54c1.776-.604 2.4-1.287 2.035-2.227-.385-.991-1.469-1.337-2.425-.773-1.084.64-1.23.204-.804-2.428 1.56-9.667 8.664-18.782 17.94-23.016 5.155-2.354 11.623-3.387 13.481-2.158m225.68-.162c.731.207 2.907.447 4.835.531 3.23.142 5.206.49 10.154 1.79 11.927 3.136 20.755 16.012 20.104 29.327-.844 17.29-19.811 31.651-38.013 28.784-2.6-.41-11.08-.95-15.028-.959-1.26-.003-2.473-.12-2.695-.26-.48-.304-.71-57.419-.234-58.307.33-.618 2.96-.674 3.559-.076.22.22.661 1.22.981 2.225 1.608 5.039 2.632 5.139 7.013.68 4.012-4.082 5.704-4.762 9.324-3.735m-160.35 1.136c3.113 1.522 3.149 3.753.112 7.323-2.054 2.42-2.172 3.201-.467 3.093 6.18-.393 6.676-.044 7.103 5.003.217 2.58.303 2.838 2.57 7.817 3.896 8.548 4.2 9.75 2.661 10.54-5.886 3.029-4.749 7.094 2.359 8.43 2.098.395 2.276.542 2.944 2.44.328.933 1.144 2.971 1.812 4.527l1.446 3.371c2.604 6.073 2.205 6.74-4.044 6.74-7.443 0-10.424-2.018-11.36-7.684-.378-2.286-.573-2.46-3.469-3.079-2.761-.592-19.732-.62-21.457-.037-.482.164-.629.013-1.035-1.046-.817-2.14-2.235-2.223-5.565-.322-3.021 1.724-3.109 2.107-.629 2.743 4.402 1.128 5.389 4.44 2.31 7.747-2.38 2.556-6.517 2.871-8.373.637-.184-.224-.723-.485-1.195-.582-2.548-.518-2.917-.694-3.28-1.564-.48-1.146.087-4.046 1.172-6.011.395-.715 2.734-5.767 2.734-5.905 0-.063.302-.775.673-1.583.987-2.16 1.34-4.069.978-5.277-.634-2.118 2.482-10.007 5.913-14.97 1.121-1.622 1.524-2.591 2.692-6.482 2.556-8.523 5.307-12.595 10.105-14.955 3.918-1.928 10.314-2.368 13.29-.914m-247.99-.291c7.892.943 16.103 5.32 18.7 9.968 1.634 2.921 2.045 7.187.712 7.371-1.362.19-1.798 1.032-.606 1.17.9.103.9.092-.012 5.076-2.125 11.634-5.794 14.32-20.277 14.832-12.148.429-13.761 2.116-11.076 11.588 1.702 6.001-1.917 9.84-9.279 9.84-7.93 0-9.259-4.94-3.065-11.403 1.508-1.574 1.16-3.022-.726-3.022-2.039 0-1.87 1.922-1.87-21.303V28.668l.697-.175c.383-.097 1.472-.095 2.42.002 3.39.346 4.21-.631 1.331-1.59-4.117-1.372-3.648-1.528 4.628-1.526 3.83 0 7.875-.102 8.988-.227 1.973-.223 7.01-.147 9.436.143m137.086.225c2.091.904 3.023 3.466 2.339 6.43-.94 4.075-3.427 4.788-13.883 3.984-12.068-.928-14.764 1.149-13.574 10.449.209 1.632.194 1.695-.464 1.994-2.184.995-2.108 8.478.099 9.659 2.737 1.466 5.752-5.218 3.825-8.481-.789-1.341-.962-1.288 4.062-1.226 2.417.03 7.063.074 10.326.1 6.627.05 6.36-.018 7.3 1.84 2.721 5.368-1.575 11.714-6.294 9.294-.555-.285-2.095-.385-6.24-.406-3.03-.014-5.722-.095-5.988-.18-.623-.197-3.641.347-4.685.845-1.787.85-2.015 1.679-1.921 6.983.14 7.85-.88 7.424 17.153 7.13l7.416-.119 1.245.733c1.92 1.127 2.258 2.06 2.258 6.196 0 2.35-.103 3.528-.331 3.756-.254.254-4.119.346-16.445.393-13.404.05-16.32.128-17.328.46-5.224 1.724-6.602.277-6.604-6.924-.001-4.803.018-4.724-1.283-5.125-.653-.202-.742-47.323-.09-47.865.283-.234 4.055-.299 14.687-.249 7.866.036 14.398-.03 14.513-.148.416-.426 8.75-.023 9.907.477m157.026-.35c1.721.159 4.261.463 5.642.675 3.415.524 3.736.503 4.253-.288l.442-.675h7.274c9.34 0 10.054.385 10.054 5.411 0 4.85-3.282 7.64-7.087 6.028-5.506-2.335-11.056-1.19-13.085 2.696l-.854 1.637.1 3.774c.426 15.94.105 24.254-1.058 27.5-.99 2.763-.982 3.166.084 3.98 5.03 3.837-.855 11.85-6.949 9.458-.592-.231-1.956-.51-3.03-.618-3.585-.357-4.133-1.697-3.554-8.701.21-2.56.366-5.777.345-7.147l-.04-2.488 1.889-2.095c3.838-4.252 3.987-6.346.684-9.573-2.655-2.591-3.303-4.987-2.36-8.698l.207-.809.03.89c.043 1.152 1.21 2.418 1.79 1.938 1.325-1.1.293-4.293-1.391-4.306-.722-.005-.905-.471-.905-2.307 0-3.019-1.752-5.803-3.906-6.207-.596-.112-2.529.097-5.169.56-6.46 1.13-9.384.572-10.874-2.079-1.062-1.891-1.226-7.29-.257-8.457.4-.482 22.696-.561 27.725-.099m70.83.228c3.673.482 5.81 1.733 6.731 3.936.588 1.403.578 4.785-.016 5.691l-.42.642-6.667.01c-3.665.006-8.85.011-11.519.011-7.158-.001-8.206.694-8.44 5.596-.247 5.207 2.02 8.107 5.737 7.34.893-.184 2.656-.317 3.916-.295 1.26.02 4.286-.154 6.723-.389 8.708-.84 9.449-.204 9.502 8.184.005.83-.83 1.95-1.824 2.447-1.14.57-14.147.403-16.159-.207-.447-.135-1.49-.155-2.315-.043-4.15.564-5.395 2.894-5.374 10.066l.013 4.276-.919-.172c-1.184-.223-1.933.4-1.486 1.235.252.47.451.519 1.415.352 2.567-.443 26.277-.438 27.136.005 1.33.69 2.016 2.334 2.02 4.856.012 5.083-2.688 7.57-6.772 6.241-.953-.309-2.341-.42-5.085-.41-2.444.01-5.294-.19-8.088-.567a557.04 557.04 0 0 0-6.47-.841c-2.79-.332-2.96-.395-3.333-1.212-.563-1.236-1.512-.788-1.553.735-.018.687-.116 1.384-.218 1.55-.233.376-10.076.41-10.669.037-.616-.39-.721-21.19-.147-28.989.502-6.802.53-11.894.09-15.844-.383-3.45-.332-3.533 1.945-3.31 2.629.257 2.823-.53.536-2.174-3.344-2.4-4.856-6.785-3.038-8.8.545-.605 30.096-.568 34.748.043m-308.634.662c1.599 1.094 3.321 1.255 6.98.654 4.96-.817 6.39-.32 7.856 2.732l.723 1.503 2.282.014c6.04.04 6.227 2.742.926 13.5-3.296 6.688-3.629 7.49-3.629 8.735 0 .572-.106 1.106-.238 1.185-.129.081-.375.7-.545 1.377-.517 2.058.827 4.38 5.769 9.968 3.955 4.471 6.047 7.727 6.613 10.29.176.802.862 2.145 1.784 3.494 2.24 3.279 2.114 4.536-.53 5.248-1.007.27-11.363.302-12.376.037-1.035-.27-2.703-4.023-4.52-10.169-2.102-7.104-5.07-10.296-11.53-12.394-.78-.253-1.541-.693-1.694-.977-.331-.62-.878-.665-1.336-.112-.184.222-.57.405-.852.405-1.184 0-2.687 1.088-3.282 2.376-.56 1.21-.581 1.566-.513 8.528.08 8.137-.066 9.093-1.628 10.602-3.453 3.342-13.407 2.653-13.407-.928 0-1.403 3.95-5.21 5.403-5.21.447 0 4.252-1.906 4.569-2.288.642-.775.12-1.165-1.8-1.341-8.77-.806-10.507-2.398-8.487-7.775.552-1.468.582-1.965.532-8.358-.084-10.943.964-12.71 7.07-11.914 1.188.154 1.562.108 1.839-.223.457-.552-.122-.864-2.107-1.13-3.667-.498-5.993-3.843-7.027-10.11-.354-2.146-.212-6.394.254-7.622.345-.904.004-.88 11.982-.82l9.937.05.982.673m-208.558-.47c.322.323-.623 1.719-1.165 1.719-.614 0-.783-1.472-.194-1.708.492-.2 1.165-.204 1.359-.01m28.365.632c9.043 1.62 15.58 4.669 19.603 9.143 12.558 13.969 5.851 42.462-11.235 47.729-5.242 1.618-35.646 3.038-36.956 1.728-1.02-1.02-1.204-2.859-1.196-11.882l.008-8.73.685-1.398c2.23-4.55 2.339-6.044.68-9.31-1.064-2.093-1.169-2.504-1.531-5.932-1.298-12.305 2.07-19.607 9.99-21.657 2.804-.724 15.258-.532 19.952.31m44.754-.521c.298.016 5.714-.026 12.035-.093 12.626-.134 11.856-.213 12.48 1.285 1.017 2.44 1.313 2.476 4.643.574 4.902-2.8 7.045-2.617 7.158.611.23 6.563-1.577 8.86-6.74 8.57-1.29-.07-4.65-.263-7.467-.425-11.434-.656-14.292.843-13.221 6.935.909 5.172 3.313 6.262 12.027 5.456 9.222-.854 11.207-.404 12.902 2.919 2.69 5.272-2.756 9.694-9.96 8.088-11.124-2.483-16.385 1.032-14.838 9.914.744 4.268 2.1 5.117 7.743 4.847 10.897-.52 10.373-.524 11.735.065.81.35 1.413.836 1.679 1.349.589 1.137.878 1.147 2.903.09 2.084-1.085 2.86-.89 3.611.906.447 1.07.53 6.435.118 7.522l-.264.694-11.249-.07-11.249-.07-.53-1.01c-1.403-2.662-4.339-2.677-11.628-.058-4.664 1.676-5.042 1.726-5.723.757-1.112-1.584-1.605-4.495-1.147-6.773.427-2.127 1.603-6.807 1.896-7.537 1.069-2.677.605-5.24-1.265-6.969l-1.479-1.368-.155-2.048c-.254-3.352.393-5.181 3.458-9.774 3.043-4.555 3.254-5.518 1.214-5.532-3.926-.028-4.614-2.28-4.112-13.475.281-6.29.01-5.733 2.69-5.555 1.208.08 2.44.158 2.735.175m467.8 3.987c-.238.383.512.888 1.027.69.247-.095.404-.308.35-.476-.129-.387-1.17-.55-1.378-.214m-279.611.548c-1.45.659-1.875 1.194-1.503 1.888.57 1.065 2.007 1.035 3.212-.063 2.005-1.826.895-3.01-1.71-1.825m13.634.746c-1.585 2.017.925 2.868 4.23 1.435 2.45-1.063 1.649-2.145-1.585-2.145-1.932 0-2.127.053-2.645.71M169.766 35.24c-2.13.49-2.236.634-1.806 2.428.568 2.365.055 5.388-1.909 11.249-1.282 3.829-1.069 6.163.567 6.163.702 0 1.258.822 1.459 2.156.666 4.44 1.459 4.688 3.669 1.157 1.976-3.16 3.71-3.792 7.963-2.9 1.605.334 4.559-2.626 5.356-5.37 2.585-8.89-5.818-17.066-15.3-14.883m61.424-.104c-.593.12-1.412.346-1.82.503l-.742.285V51.56l.73.478c1.224.803 7.557.693 9.453-.165 10.29-4.649 3.742-19.033-7.62-16.739m353.38.13c-2.15.524-2.217.632-2.217 3.513 0 3.023-.083 3.274-1.246 3.76-1.12.468-1.151.938-.115 1.704 1.215.9 1.358 1.924 1.36 9.83 0 6.389-.06 7.437-.538 9.16-1.24 4.473-.097 7.758 3.415 9.816 3.27 1.917 8.289 1.907 11.136-.021.524-.353 1.836-1.12 2.917-1.7 18.88-10.16 6.228-41.173-14.711-36.063m-541.75.864c-.398.06-.867.283-1.044.497-.422.508-.62 32.605-.212 34.226.945 3.742 3.419 4.944 7.773 3.774.816-.218 2.519-.4 3.786-.401 9.066-.013 11.87-4.107 12.921-18.877.675-9.476 2.195-13.16 6.296-15.241 1.137-.577 1.783-1.312 1.448-1.647-.256-.255-1.935.35-3.151 1.134-2.26 1.46-5.958 1.448-10.246-.032l-4.988-1.718c-4.768-1.644-9.15-2.24-12.583-1.715m132.944 1.183c2.694.831 5.34 2.839 6.185 4.69.202.446.467 1.009.589 1.25.986 1.97.89 5.238-.225 7.556-1.026 2.132-1.733 2.47-4.44 2.125-2.418-.309-3.996.099-5.443 1.404-.287.26-.617.473-.732.473-.115 0-.516.453-.893 1.006l-.683 1.006v-.89c0-1.465-1.129-3.01-2.198-3.01-.39 0-.499-.205-.499-.943 0-.52.122-.943.27-.943.148 0 .27-.246.27-.544 0-.76.627-2.691.874-2.691.112 0 .204-.416.204-.922 0-.507.13-.965.286-1.016.159-.054.358-.64.442-1.304.084-.663.269-1.353.41-1.53.138-.178.23-.664.203-1.08-.027-.415-.037-1.627-.02-2.691l.027-1.938.876-.109c1.812-.224 3.566-.186 4.497.1m59.464-.033c.093.152.58.276 1.082.276.501 0 .987.122 1.079.27.092.15.403.27.69.27.287 0 .523.122.523.27 0 .148.181.27.404.27.222 0 .405.09.406.202 0 .111.364.59.81 1.064.442.474.806 1.05.806 1.28 0 .23.122.418.27.418.428 0 .322 3.85-.134 4.944-.48 1.149-2.365 3.145-2.97 3.145-.234 0-.799.192-1.25.425-.974.505-4.735.589-5.599.126-.543-.29-.561-.496-.561-6.436v-6.136l.875-.257c1.275-.376 3.37-.452 3.569-.131m357.178.171c1.303.24 2.538.604 2.743.81.207.206.597.374.869.374s.796.279 1.165.618c.37.34 1.226.998 1.902 1.461.676.464 1.684 1.396 2.237 2.072.553.675 1.176 1.398 1.383 1.607.547.545 1.485 2.28 1.485 2.743 0 .218.121.396.27.396.148 0 .269.219.269.486s.097.6.215.74c1.496 1.788 1.993 10.11.725 12.14-.193.307-.502 1.065-.688 1.685-.186.62-.44 1.126-.564 1.126-.125 0-.227.188-.227.417 0 .523-3.526 3.994-4.675 4.602-.469.248-1.64.86-2.604 1.356-.964.498-2.093 1.178-2.51 1.51-1.033.821-5.303.816-7.212-.01-3.124-1.353-4.716-5.678-3.063-8.325.458-.733.612-16.607.167-17.147-.41-.497-.488-2.567-.111-2.944.211-.212.326-1.26.326-2.968v-2.644l.743-.003c.407-.003.923-.121 1.145-.265.613-.398 3.363-.322 6.01.163m-544.398.924c.36.194.685.19 1.06-.01.365-.196.54-.199.54-.01 0 .154.297.28.663.28.365 0 1.28.243 2.031.539.753.298 1.654.54 2 .54.348 0 .783.181.967.405.185.221.678.404 1.095.404.418 0 .829.11.913.246.082.136.624.325 1.203.424.58.097 1.276.346 1.55.553.272.207.822.38 1.221.385.4.005.8.131.893.278.09.15.63.27 1.196.27 2.22 0 3.563.791 2.478 1.461-.13.081-.324.542-.432 1.027-.108.486-.31 1.367-.451 1.961-.56 2.384-1.021 5.772-1.045 7.684-.015 1.113-.146 2.629-.292 3.37-.145.742-.32 2.05-.386 2.911-.607 7.826-3.148 10.52-10.37 10.986-1.853.12-4.136.336-5.07.48-4.446.684-4.312 1.265-4.223-18.176.04-8.641.152-15.84.25-15.998.228-.37 3.521-.377 4.209-.01m370.889 2.336c-2.512 7.667-5.193 14.984-6.12 16.705-1.716 3.184-1.051 5.125 2.014 5.876.819.202 11.448.132 13.548-.088.455-.047.424-.804-.09-2.224-.803-2.224-6.09-17.626-6.835-19.918-1.035-3.179-1.566-3.253-2.517-.351m1.42 4.376c0 .286.183.702.405.925.223.221.404.708.404 1.08 0 .374.121.753.27.845.149.092.27.456.27.809 0 .352.122.716.269.808.149.093.27.439.27.772 0 .332.105.718.231.86.128.14.456.923.73 1.738.272.815.592 1.598.712 1.739.118.14.215.513.215.827 0 .312.242 1.07.538 1.685.296.613.539 1.357.539 1.652 0 .294.121.611.27.704.149.09.27.446.27.789 0 1.139-10.024 1.517-11.189.422-.59-.553-.463-2.156.173-2.156.104 0 .337-.455.515-1.011.18-.555.453-1.17.608-1.366.338-.423 1.244-2.982 1.258-3.553.005-.224.191-.753.413-1.178.221-.424.407-.97.412-1.213.005-.243.186-.677.405-.965.216-.287.394-.857.394-1.264 0-.408.106-.806.233-.885.128-.08.387-.693.575-1.364.347-1.242.81-1.642.81-.7m102.154 2.648c-.331.863-.02 1.55.703 1.55.816 0 1.104-.79.58-1.59-.587-.897-.928-.887-1.283.04m-179.26 1.972c-2.946 1.387-4.4 3.253-2.84 3.644.937.235 2.707-.684 4.255-2.211 2.237-2.205 1.596-2.854-1.416-1.433m-49.016 2.102c.14.838.086 1.397-.196 1.942-.218.42-.396.952-.396 1.182 0 .23-.121.417-.27.417-.147 0-.36-.001-.47-.003-.113-.001-.211-.152-.22-.336-.01-.183-.114-.741-.23-1.238-.324-1.375.295-3.326 1.02-3.22.432.061.607.35.762 1.256m243.943-.378c-3.643.83-4.261 2.302-1.55 3.685 2.642 1.347 5.862.877 5.862-.856 0-.841-1.907-3.251-2.528-3.195-.165.015-.969.18-1.784.366m106.211.752c-.006.333.054 7.464.135 15.845.158 16.427-.004 19.64-1.207 23.94-2.357 8.415-7.545 12.421-16.169 12.491-1.705.013-23.938.08-49.406.147l-46.303.123-.272-.716c-.303-.796-.943-.779-.943.025 0 .583-23.147.939-27.77.428-1.186-.132-3.795-.141-5.796-.023-11.33.668-18.548.63-18.249-.102.403-.984.429-1.166.217-1.5-.316-.495-2.644.523-3.422 1.497l-.556.699-7.666-.32c-5.162-.214-8.326-.234-9.687-.057-2.646.343-11.603.386-12.431.061a79.416 79.416 0 0 1-1.62-.671c-.936-.4-1.01-.39-1.878.25l-.904.669-22.252-.115a32644.59 32644.59 0 0 1-22.925-.122c-.893-.01-39.154.5-41.923.558-1.684.034-3.105-.182-6.471-.988-5.702-1.367-7.792-1.41-10.073-.215l-1.613.846-17.883.024c-11.784.018-19.475-.089-22.552-.309-4.974-.356-8.329-.173-13.394.73-4.81.857-6.952.526-9.995-1.547-2.312-1.575-2.616-1.593-3.925-.216-.566.595-1.326 1.195-1.688 1.333-.903.343-50.178.391-53.816.053-1.558-.146-4.166-.217-5.796-.159-1.632.059-10.185.22-19.008.36-8.824.14-16.582.34-17.242.444-1.655.26-4.437-.28-7.967-1.548-3.963-1.425-6.281-1.394-9.206.118l-1.89.98-64.414.048c-47.76.035-65.183-.033-67.382-.267-10.985-1.175-13.564-4.45-8.136-10.337 1.32-1.43 1.531-1.44 3.15-.159 3.027 2.401 7.342 3.383 13.668 3.11 13.912-.602 13.15-.685 12.535 1.365-1.268 4.233 3.058 4.13 12.08-.288l2.292-1.123 17.39-.032c9.564-.018 20.058-.123 23.32-.233 6.628-.223 9.606.15 12.65 1.59 1.578.747 2.078.74 6.897-.115 5.8-1.025 20.646-1.585 38.42-1.446 7.562.06 14.183.107 14.712.105.73-.003 1.214.228 2.022.966 3.863 3.538 7.876 3.486 20.875-.272 3.373-.975 4.303-1.04 12.403-.857 10.223.231 10.513.231 25.298.013 11.773-.173 12.543-.156 13.404.307.878.472.96.474 2.253.008 1.513-.543 6.444-.511 10.302.068 1.507.227 3.12.231 6.066.021 7.363-.526 12.648-.624 14.044-.262 1.552.404 7.152.396 11.13-.014 1.557-.16 5.018-.313 7.687-.337l4.853-.044 1.077.725c2.164 1.456 4.206 1.45 11.131-.039 4.463-.957 7.03-1.046 11.348-.393 2.889.439 8.476.398 15.07-.107 1.373-.105 4.832-.123 7.684-.04 2.852.084 6.883.053 8.958-.07 2.077-.12 4.746-.278 5.932-.349 3.947-.235 5.83.63 6.204 2.849.246 1.456.6 1.532 3.191.697 4.16-1.341 8.978-1.627 19.184-1.137 5.707.275 9.036-.235 13.48-2.06 3.674-1.509 6.673-.925 11 2.142 4.057 2.878 5.903 3.213 8.63 1.57 5.037-3.034 10.738-3.854 22.734-3.272 2.84.14 4.89.094 6.741-.147 2.69-.35 4.028-.364 18.566-.178l8.088.102 1.298.84c2.748 1.776 6.083 1.828 12.808.197 9.217-2.232 12.51-2.412 17.974-.972 3.775.993 6.486 1.095 11.462.432 1.705-.228 3.95-.526 4.988-.663 2.258-.3 7.965-.34 8.389-.06.166.108.551.69.857 1.294 2.014 3.974 6.217 6.529 7.066 4.295.327-.86-.254-2.527-1.372-3.94-1.59-2.007-3.023-1.874 20.847-1.923 32.086-.063 29.195-.116 31.21.562.965.325 2.282.891 2.927 1.26 1.493.854 1.705.844 2.784-.143 2.127-1.942 4.977-2.348 12.622-1.794 3.04.22 8.014.382 11.055.358l5.526-.042 1.963-1.047c3.322-1.776 5.445-4.655 6.577-8.927.479-1.804.721-6.018.378-6.573-.62-1.006-.079-15.51.693-18.501 1.334-5.176 7.032-13.179 6.957-9.774m-103.92.375c1.619 1.62 1.41 2.524-.581 2.524-2.128 0-4.326-1.257-3.56-2.033.861-.876 3.45-1.183 4.14-.49M5.808 57.867c-.274.2-.389.424-.255.498 1.03.57 1.864.351 1.571-.41-.209-.546-.65-.575-1.317-.088m572.906 2.064c-.244.395.094.809.662.809.5 0 .92-.621.623-.917-.258-.26-1.102-.186-1.285.108m-6.207 10.01c-2.044 1.883-1.334 2.93.882 1.3 1.116-.821 1.6-1.628 1.283-2.141-.32-.518-.963-.269-2.165.84m-322.31 1.334c0 .69.892.613 1.028-.09.061-.324-.083-.47-.47-.47-.384 0-.557.173-.557.56m155.455 3.093c.094.378.098.762.005.854-.092.092-.166-.028-.166-.264 0-.238-.243-.508-.54-.603-.695-.22-.698-.673-.005-.673.347 0 .595.24.706.686M127.13 77.446c-.572.633-.372 1.357.377 1.357.723 0 1.25-.973.812-1.5-.424-.512-.618-.488-1.189.143m505.086 19.91c-.362.282-2.175 1.393-4.03 2.467-4.053 2.35-4.09 2.378-3.988 3.087.213 1.496 6.079-.48 8.716-2.936 1.957-1.822 1.324-4.193-.698-2.618m-594.283 1.57a.332.332 0 0 0-.035.394c.166.272.927.006.927-.324 0-.278-.635-.326-.892-.07m324.448.072c-.574.369-.137 1.105.657 1.105.573 0 .686-.112.615-.603-.094-.657-.675-.887-1.272-.502m-12.16 1.914c0 .299.18.538.405.538.225 0 .404-.239.404-.538 0-.3-.18-.539-.404-.539-.225 0-.404.24-.404.539m112.88-.096c-.37.37-.177.943.287.853.26-.05.472-.26.472-.47 0-.425-.475-.666-.758-.383m50.134 1.58c-.207.54.089 1.26.467 1.135.477-.157.55-1.54.081-1.54-.217 0-.463.18-.548.404" fill="#350404"/></g></svg>